<?xml version="1.0" encoding="UTF-8" standalone="no"?>
<svg
   height="18.450001"
   viewBox="0 -960 640 738.00003"
   width="16"
   version="1.1"
   id="svg4"
   sodipodi:docname="restart.svg"
   xmlns:inkscape="http://www.inkscape.org/namespaces/inkscape"
   xmlns:sodipodi="http://sodipodi.sourceforge.net/DTD/sodipodi-0.dtd"
   xmlns="http://www.w3.org/2000/svg"
   xmlns:svg="http://www.w3.org/2000/svg">
  <defs
     id="defs8" />
  <sodipodi:namedview
     id="namedview6"
     pagecolor="#ffffff"
     bordercolor="#000000"
     borderopacity="0.25"
     inkscape:showpageshadow="2"
     inkscape:pageopacity="0.0"
     inkscape:pagecheckerboard="0"
     inkscape:deskcolor="#d1d1d1"
     showgrid="false" />
  <path
     d="M 280,-222 Q 159,-237 79.5,-327.5 0,-418 0,-540 0,-606 26,-666.5 52,-727 100,-772 l 57,57 q -38,34 -57.5,79 -19.5,45 -19.5,96 0,88 56,155.5 56,67.5 144,82.5 z m 80,0 v -80 q 87,-16 143.5,-83 56.5,-67 56.5,-155 0,-100 -70,-170 -70,-70 -170,-70 h -3 l 44,44 -56,56 -140,-140 140,-140 56,56 -44,44 h 3 q 134,0 227,93 93,93 93,227 0,121 -79.5,211.5 Q 481,-238 360,-222 Z"
     id="path2"
     style="fill:#ffffff;fill-opacity:1"
     inkscape:export-filename="restart.svg"
     inkscape:export-xdpi="96"
     inkscape:export-ydpi="96" />
</svg>
